<?xml version="1.0" encoding="iso-8859-1"?>
<!-- Generator: Adobe Illustrator 19.0.0, SVG Export Plug-In . SVG Version: 6.00 Build 0)  -->
<svg version="1.1" id="Capa_1" xmlns="http://www.w3.org/2000/svg" xmlns:xlink="http://www.w3.org/1999/xlink" x="0px" y="0px"
	 viewBox="0 0 512 512" style="enable-background:new 0 0 512 512;" xml:space="preserve">
<g>
	<path style="fill:#FF4F19;" d="M236.662,337.591l-50.299,40.406c-1.229,0.988-1.944,2.479-1.944,4.054v124.736
		c0,4.246,4.814,6.703,8.252,4.212l43.99-31.873V337.591H236.662z"/>
	<path style="fill:#FF4F19;" d="M275.338,337.591l50.299,40.406c1.229,0.988,1.944,2.479,1.944,4.054v124.736
		c0,4.246-4.814,6.703-8.252,4.212l-43.99-31.873L275.338,337.591L275.338,337.591z"/>
</g>
<g>
	<path style="fill:#E23D17;" d="M327.576,382.056v124.73c0,4.254-4.806,6.709-8.249,4.213l-13.273-9.622
		c0.791-0.936,1.279-2.153,1.279-3.547V364.964c0-0.676-0.125-1.341-0.375-1.966l18.682,15
		C326.868,378.987,327.576,380.474,327.576,382.056z"/>
	<path style="fill:#E23D17;" d="M184.419,382.056v124.73c0,4.254,4.806,6.709,8.249,4.213l13.273-9.622
		c-0.791-0.936-1.279-2.153-1.279-3.547V364.964c0-0.676,0.125-1.341,0.375-1.966l-18.682,15
		C185.127,378.987,184.419,380.474,184.419,382.056z"/>
</g>
<path style="fill:#B7C1CA;" d="M251.526,2.176L215.78,50.797c-2.59,3.523-0.074,8.495,4.298,8.495h35.746h35.746
	c4.373,0,6.889-4.972,4.298-8.495L260.123,2.176C257.99-0.725,253.658-0.725,251.526,2.176z"/>
<path style="fill:#A3AEB7;" d="M291.573,59.292h-16.64L242.237,14.82l9.289-12.642c2.131-2.901,6.465-2.902,8.598-0.001
	l35.749,48.62C298.462,54.319,295.946,59.292,291.573,59.292z"/>
<rect x="236.663" y="59.292" style="fill:#FFDBA9;" width="38.677" height="418.918"/>
<rect x="255.995" y="59.292" style="fill:#FFC473;" width="19.338" height="418.918"/>
<g>
</g>
<g>
</g>
<g>
</g>
<g>
</g>
<g>
</g>
<g>
</g>
<g>
</g>
<g>
</g>
<g>
</g>
<g>
</g>
<g>
</g>
<g>
</g>
<g>
</g>
<g>
</g>
<g>
</g>
</svg>
