<?xml version="1.0" encoding="iso-8859-1"?>
<!-- Generator: Adobe Illustrator 16.0.0, SVG Export Plug-In . SVG Version: 6.00 Build 0)  -->
<!DOCTYPE svg PUBLIC "-//W3C//DTD SVG 1.1//EN" "http://www.w3.org/Graphics/SVG/1.1/DTD/svg11.dtd">
<svg version="1.1" id="Capa_1" xmlns="http://www.w3.org/2000/svg" xmlns:xlink="http://www.w3.org/1999/xlink" x="0px" y="0px"
	 width="32px" height="32px" viewBox="0 0 32 32" style="enable-background:new 0 0 32 32;" xml:space="preserve">
<g>
	<path d="M30.271,20.987l-3.307-10.309h-0.838v-0.564c1.639-0.404,1.667-2.02,1.667-2.02s-0.621,0.729-1.667,1.012V8.66h-0.654
		v0.555c-0.027,0.001-0.052,0.008-0.08,0.009c-1.49,0.036-2.162-2.436-4.037-2.436c-1.746,0-3.696,1.039-4.957,1.183V5.158
		c0.892-0.139,1.574-0.901,1.574-1.831c0.002-1.026-0.832-1.859-1.859-1.859c-1.026,0-1.859,0.833-1.859,1.859
		c0,0.98,0.762,1.775,1.725,1.847V7.95c-1.261-0.199-3.132-1.162-4.816-1.162c-1.875,0-2.545,2.472-4.036,2.436
		C7.006,9.22,6.895,9.201,6.781,9.186V8.66H6.127v0.373c-0.887-0.322-1.4-0.938-1.4-0.938s0.028,1.431,1.4,1.934v0.649H5.29
		l-3.365,10.31H0c0,0,1.381,2.639,6.327,2.639c4.946,0,6.327-2.639,6.327-2.639h-1.729L7.62,10.679H6.781v-0.496
		c0.132,0.014,0.27,0.022,0.419,0.022c2.437,0,2.8-1.545,4.146-1.545c1.211,0,2.63,1.504,4.379,1.808
		c0.075,0.021,0.442-0.004,0.332,0.023L16,16.268l-1.111,2.25l0.038,6.778h-3.054v1.199l-2.455,4.037h13.963l-3-4.092v-1.146h-2.672
		v-6.716l-1.125-2.364l-0.001-5.737c0.101-0.001,0.097,0.021,0.213-0.01c1.749-0.304,3.168-1.808,4.379-1.808
		c1.347,0,1.709,1.545,4.146,1.545c0.056,0,0.102-0.006,0.152-0.008v0.48h-0.836l-3.365,10.309h-1.926c0,0,1.381,2.639,6.327,2.639
		S32,20.987,32,20.987H30.271z M6.127,20.987H2.614l3.15-9.653h0.363V20.987z M7.143,11.333l3.096,9.652H6.781v-9.652H7.143z
		 M25.473,20.987h-3.514l3.15-9.653h0.363V20.987L25.473,20.987z M26.127,20.987v-9.654h0.361l3.096,9.652L26.127,20.987
		L26.127,20.987z"/>
</g>
<g>
</g>
<g>
</g>
<g>
</g>
<g>
</g>
<g>
</g>
<g>
</g>
<g>
</g>
<g>
</g>
<g>
</g>
<g>
</g>
<g>
</g>
<g>
</g>
<g>
</g>
<g>
</g>
<g>
</g>
</svg>
