<?xml version="1.0" encoding="iso-8859-1"?>
<!-- Generator: Adobe Illustrator 19.0.0, SVG Export Plug-In . SVG Version: 6.00 Build 0)  -->
<svg version="1.1" id="Capa_1" xmlns="http://www.w3.org/2000/svg" xmlns:xlink="http://www.w3.org/1999/xlink" x="0px" y="0px"
	 viewBox="0 0 512 512" style="enable-background:new 0 0 512 512;" xml:space="preserve">
<path style="fill:#FFC88C;" d="M491.679,307.01c-3.683,0-7.111-0.496-9.516-1.071c-24.182-5.806-29.214-31.436-32.889-50.15
	l-1.103-5.536c-10.54-50.484-33.071-75.48-75.357-83.583c-4.405-0.841-7.294-5.099-6.452-9.508c0.841-4.413,5.103-7.309,9.516-6.452
	c49.071,9.401,76.277,39.079,88.198,96.225l1.151,5.722c3.921,19.972,7.698,34.349,20.73,37.476
	c3.754,0.897,8.127,0.71,10.079,0.139c1-3.595,4.262-6.182,8.27-5.94c4.476,0.238,7.921,4.067,7.682,8.548
	c-0.222,4.048-2.167,7.647-5.5,10.131C502.417,306.049,496.798,307.01,491.679,307.01z"/>
<g>
	<path style="fill:#D26437;" d="M321.014,260.963c0.563,23.619,13.206,103.957,13.206,103.957h-7.096
		c-5.685,0-10.957,2.97-13.902,7.833l-5.223,8.625c-2.107,3.478,0.398,7.923,4.464,7.923h21.545c5.235,0,10.15-2.522,13.203-6.775
		l11.202-15.602c1.888-2.63,2.872-5.736,2.989-8.972c0.917-25.323,8.484-54.1,12.437-66.174l-32.508-40.635L321.014,260.963z"/>
	<path style="fill:#D26437;" d="M203.173,275.524h-48.762l34.19,89.396c-6.033,0-11.569,3.341-14.38,8.678l-4.519,8.577
		c-1.705,3.236,0.642,7.125,4.3,7.125h18.399c6.529,0,12.425-3.907,14.969-9.921l7.708-18.218c1.207-2.853,1.574-5.991,1.057-9.045
		L203.173,275.524z"/>
</g>
<path style="fill:#FFC88C;" d="M145.703,226.762v62.496c98.79-0.955,159.595-17.96,187.501-28.246v-34.25H145.703z"/>
<path style="fill:#EB874B;" d="M415.997,218.446V195.76c0-20.411-13.651-38.386-33.375-43.634c-0.159-0.042-8.275-1.743-8.275-1.743
	c-52.924-10.142-150.911,9.069-176.398,9.651c-33.527,0.765-62.534-18.606-90.114-27.003c-12.239-3.726-25.28-3.934-37.826-1.428
	l-16.026,3.202c-20.991,3.98-28.247,8.805-35.987,21.601C10.405,168.953,0,201.394,0,201.394s24.381,32.798,32.508,24.671
	c9.492-9.492,18.963-15.238,30.476-15.674c7.184-0.272,15.896,2.927,23.626-0.936c39.543,58.07-5.34,154.767-5.34,154.767h-2.328
	c-6.212,0-11.881,3.541-14.606,9.124l-4.178,8.559c-1.509,3.093,0.742,6.697,4.184,6.697h20.172c3.543,0,7.052-1.05,9.819-3.263
	c38.322-30.637,69.259-106.356,78.744-131.427c1.976-5.223,6.457-9.106,11.933-10.2c1-0.2,2.076-0.408,3.223-0.622l33.56-4.247
	c26.939-1.841,61.552-0.375,91.743,12.994c5.352,2.37,10.053,6.089,13.413,10.882c15.573,22.217,39.083,30.025,66.192,51.217
	c24.042,18.794,24.921,50.285,24.921,50.285c-6.996,0-13.207,4.477-15.42,11.114l-2.38,7.139c-1.005,3.014,1.239,6.127,4.416,6.127
	h26.781c4.192,0,7.696-3.188,8.091-7.362l6.956-73.55c0.192-2.031-0.364-4.019-1.596-5.645
	C438.194,293.184,415.997,260.694,415.997,218.446z"/>
<g>
	<path style="fill:#D26437;" d="M67.145,123.628c-4.119,2.612-10.03,7.514-14.295,15.866c-1.834,3.591,0.661,7.884,4.687,8.092
		l18.213,0.939c3.651,0.188,6.502-3.127,5.745-6.703c-1.012-4.784-2.852-11.15-6.076-16.314
		C73.664,122.698,69.943,121.854,67.145,123.628z"/>
	<path style="fill:#D26437;" d="M100.69,351.592c32.028-61.24,18.72-118.542,9.844-143.796c-2.12-6.033-9.607-8.32-14.621-4.351
		c-2.764,2.188-5.911,4.276-9.303,6.011c39.543,58.07-5.34,154.767-5.34,154.767l0,0C89.485,363.688,96.875,358.888,100.69,351.592z
		"/>
</g>
<path style="fill:#FFC88C;" d="M32.508,226.065c9.492-9.492,18.963-15.238,30.476-15.673c7.184-0.272,15.896,2.927,23.626-0.936
	c-1.341,0.544-2.828,0.249-4.464-0.582c-6.121-3.111-14.328-13.738-24.749-16.142C44.19,189.683,22.349,219.369,0,201.394
	C0,201.394,24.381,234.192,32.508,226.065z"/>
<g>
	<path style="fill:#8B534F;" d="M274.922,220.671c-0.905,0-1.825-0.155-2.722-0.472c-4.23-1.504-6.436-6.151-4.936-10.381
		l10.833-30.476c1.5-4.23,6.159-6.432,10.381-4.936c4.23,1.504,6.436,6.151,4.936,10.381l-10.833,30.476
		C281.398,218.592,278.263,220.671,274.922,220.671z"/>
	<path style="fill:#8B534F;" d="M369.056,226.429c-0.897,0-1.802-0.151-2.698-0.464c-4.23-1.488-6.46-6.127-4.968-10.361
		l10.833-30.817c1.484-4.242,6.111-6.456,10.365-4.972c4.23,1.488,6.46,6.127,4.968,10.361l-10.833,30.817
		C375.548,224.338,372.406,226.429,369.056,226.429z"/>
	<path style="fill:#8B534F;" d="M194.661,219.655c-3.579,0-6.857-2.385-7.833-6.004l-5.421-19.98
		c-1.175-4.329,1.381-8.794,5.714-9.972c4.341-1.159,8.802,1.385,9.968,5.718l5.421,19.98c1.175,4.329-1.381,8.794-5.714,9.972
		C196.081,219.56,195.367,219.655,194.661,219.655z"/>
</g>
<circle style="fill:#4B3F4E;" cx="36.571" cy="165.81" r="4.063"/>
<path style="fill:#5D5360;" d="M14.391,207.461c0-6.733-5.458-12.19-12.19-12.19c-0.058,0-0.112,0.016-0.17,0.017
	C0.775,198.985,0,201.394,0,201.394s5.217,6.993,11.616,13.723C13.325,213.019,14.391,210.378,14.391,207.461z"/>
<g>
	<path style="fill:#FFC88C;" d="M64.341,388.603h20.172c3.544,0,7.053-1.051,9.821-3.264c7.113-5.687,13.968-12.936,20.482-21.117
		H81.269h-2.328c-6.213,0-11.881,3.542-14.607,9.124l-4.178,8.559C58.648,384.999,60.9,388.603,64.341,388.603z"/>
	<path style="fill:#FFC88C;" d="M418.062,364.223c-6.996,0-13.208,4.477-15.42,11.114l-2.38,7.139
		c-1.005,3.015,1.239,6.128,4.417,6.128h26.781c4.192,0,7.696-3.188,8.091-7.362l1.609-17.019H418.062z"/>
</g>
<g>
	<path style="fill:#FFBE82;" d="M334.22,364.92h-7.096c-5.685,0-10.957,2.97-13.902,7.833l-5.223,8.624
		c-2.107,3.478,0.398,7.923,4.464,7.923h21.544c5.236,0,10.15-2.522,13.203-6.775l11.202-15.602
		c0.444-0.619,0.671-1.337,1.016-2.004L334.22,364.92L334.22,364.92z"/>
	<path style="fill:#FFBE82;" d="M188.601,364.92c-6.033,0-11.569,3.341-14.38,8.678l-4.519,8.577
		c-1.705,3.236,0.642,7.125,4.3,7.125h18.399c6.529,0,12.425-3.907,14.969-9.921l6.118-14.46L188.601,364.92L188.601,364.92z"/>
</g>
<path style="fill:#8B534F;" d="M115.09,135.481v39.135c0,4.488,3.635,8.127,8.127,8.127s8.127-3.639,8.127-8.127V141.96
	C125.849,139.636,120.438,137.415,115.09,135.481z"/>
<g>
	<path style="fill:#734650;" d="M155.144,151.653l-31.586,105.28c-1.286,4.302,1.151,8.833,5.452,10.123
		c0.778,0.234,1.563,0.345,2.333,0.345c3.5,0,6.73-2.274,7.786-5.794l31.518-105.055
		C165.382,155.185,160.216,153.517,155.144,151.653z"/>
	<path style="fill:#734650;" d="M227.137,209.318c1.008,3.587,4.27,5.936,7.817,5.936c0.73,0,1.468-0.099,2.206-0.306
		c4.317-1.214,6.841-5.698,5.627-10.02l-13.504-48.134c-6.057,0.769-11.483,1.435-16.327,1.978L227.137,209.318z"/>
	<path style="fill:#734650;" d="M332.212,147.506l-16.775,70.256c-1.04,4.369,1.651,8.75,6.016,9.794
		c0.635,0.151,1.27,0.222,1.897,0.222c3.675,0,7.008-2.508,7.897-6.238l17.622-73.805
		C343.488,147.51,337.925,147.438,332.212,147.506z"/>
	<path style="fill:#734650;" d="M416.052,220.148l-40.654,33.531c-3.46,2.857-3.952,7.98-1.095,11.44
		c1.611,1.948,3.929,2.956,6.278,2.956c1.817,0,3.651-0.607,5.167-1.857l32.131-26.501
		C416.802,233.494,416.149,226.953,416.052,220.148z"/>
</g>
<path style="fill:#8B534F;" d="M425.52,266.948l-16.297,10.988c-3.722,2.508-4.706,7.559-2.198,11.282
	c1.571,2.329,4.135,3.583,6.746,3.583c1.563,0,3.143-0.448,4.532-1.389l14.051-9.474
	C430.033,277.484,427.687,272.479,425.52,266.948z"/>
<g>
</g>
<g>
</g>
<g>
</g>
<g>
</g>
<g>
</g>
<g>
</g>
<g>
</g>
<g>
</g>
<g>
</g>
<g>
</g>
<g>
</g>
<g>
</g>
<g>
</g>
<g>
</g>
<g>
</g>
</svg>
