<?xml version="1.0" encoding="UTF-8" standalone="no"?>
<!-- Generator: Adobe Illustrator 18.0.0, SVG Export Plug-In . SVG Version: 6.00 Build 0)  -->

<svg
   xmlns:dc="http://purl.org/dc/elements/1.1/"
   xmlns:cc="http://creativecommons.org/ns#"
   xmlns:rdf="http://www.w3.org/1999/02/22-rdf-syntax-ns#"
   xmlns:svg="http://www.w3.org/2000/svg"
   xmlns="http://www.w3.org/2000/svg"
   xmlns:sodipodi="http://sodipodi.sourceforge.net/DTD/sodipodi-0.dtd"
   xmlns:inkscape="http://www.inkscape.org/namespaces/inkscape"
   version="1.1"
   id="Capa_1"
   x="0px"
   y="0px"
   viewBox="0 0 60 60"
   style="enable-background:new 0 0 60 60;"
   xml:space="preserve"
   sodipodi:docname="ballotfoot.svg"
   inkscape:version="0.92.2 5c3e80d, 2017-08-06"><metadata
     id="metadata45"><rdf:RDF><cc:Work
         rdf:about=""><dc:format>image/svg+xml</dc:format><dc:type
           rdf:resource="http://purl.org/dc/dcmitype/StillImage" /><dc:title></dc:title></cc:Work></rdf:RDF></metadata><defs
     id="defs43" /><sodipodi:namedview
     pagecolor="#ffffff"
     bordercolor="#666666"
     borderopacity="1"
     objecttolerance="10"
     gridtolerance="10"
     guidetolerance="10"
     inkscape:pageopacity="0"
     inkscape:pageshadow="2"
     inkscape:window-width="1440"
     inkscape:window-height="793"
     id="namedview41"
     showgrid="false"
     inkscape:zoom="3.9333333"
     inkscape:cx="-18.511242"
     inkscape:cy="49.992618"
     inkscape:window-x="0"
     inkscape:window-y="1"
     inkscape:window-maximized="1"
     inkscape:current-layer="g8" /><g
     id="g8"><path
       d="M29,25.882l26.482-13.241L29.434,0.099c-0.284-0.137-0.615-0.132-0.895,0.014l-25,13c-0.011,0.006-0.018,0.015-0.029,0.021   c-0.001,0.001-0.002,0.001-0.003,0.002L29,25.882z"
       id="path2"
       style="fill:#303f9f;fill-opacity:1" /><path
       d="M30,27.618V60c0.138,0,0.272-0.038,0.401-0.094c0.015-0.007,0.032-0.004,0.046-0.011l26-13C56.786,46.725,57,46.379,57,46   V14.119L30,27.618z"
       id="path4"
       style="fill:#cddc39;fill-opacity:1" /><path
       d="M28,27.618l-25-12.5V46c0,0.379,0.214,0.725,0.553,0.895L28,59.119V27.618z"
       id="path6"
       style="fill:#f57c00;fill-opacity:1" /><rect
       style="fill:#f2f2f2;fill-opacity:1;stroke-width:1.1223557"
       id="rect852"
       width="1.8286093"
       height="13.090793"
       x="-6.9148808"
       y="-34.508713"
       transform="matrix(-0.92551621,0.37870799,-0.84422641,-0.53598673,0,0)" /></g><g
     id="g10" /><g
     id="g12" /><g
     id="g14" /><g
     id="g16" /><g
     id="g18" /><g
     id="g20" /><g
     id="g22" /><g
     id="g24" /><g
     id="g26" /><g
     id="g28" /><g
     id="g30" /><g
     id="g32" /><g
     id="g34" /><g
     id="g36" /><g
     id="g38" /></svg>