<?xml version="1.0" encoding="UTF-8" standalone="no"?>
<svg
   xmlns:xhtml="http://www.w3.org/1999/xhtml"
   xmlns:dc="http://purl.org/dc/elements/1.1/"
   xmlns:cc="http://creativecommons.org/ns#"
   xmlns:rdf="http://www.w3.org/1999/02/22-rdf-syntax-ns#"
   xmlns:svg="http://www.w3.org/2000/svg"
   xmlns="http://www.w3.org/2000/svg"
   xmlns:sodipodi="http://sodipodi.sourceforge.net/DTD/sodipodi-0.dtd"
   xmlns:inkscape="http://www.inkscape.org/namespaces/inkscape"
   width="300"
   height="100"
   version="1.1"
   id="svg115"
   sodipodi:docname="jugaar.svg"
   inkscape:version="0.92.2 5c3e80d, 2017-08-06">
  <sodipodi:namedview
     pagecolor="#ffffff"
     bordercolor="#666666"
     borderopacity="1"
     objecttolerance="10"
     gridtolerance="10"
     guidetolerance="10"
     inkscape:pageopacity="0"
     inkscape:pageshadow="2"
     inkscape:window-width="1440"
     inkscape:window-height="802"
     id="namedview32"
     showgrid="false"
     inkscape:zoom="3.1266667"
     inkscape:cx="150"
     inkscape:cy="50"
     inkscape:window-x="0"
     inkscape:window-y="1"
     inkscape:window-maximized="1"
     inkscape:current-layer="svg115" />
  <metadata
     id="metadata121">
    <rdf:RDF>
      <cc:Work
         rdf:about="">
        <dc:format>image/svg+xml</dc:format>
        <dc:type
           rdf:resource="http://purl.org/dc/dcmitype/StillImage" />
        <dc:title />
      </cc:Work>
    </rdf:RDF>
  </metadata>
  <defs
     id="defs119" />
  <xhtml:defs
     style="height:auto;overflow-x:visible;overflow-y:visible;width:auto;perspective-origin:50% 50%;transform-origin:50% 50%;">
    <xhtml:style
       type="text/css"
       style="display:none;height:auto;overflow-x:visible;overflow-y:visible;width:auto;perspective-origin:50% 50%;transform-origin:50% 50%;" />
  </xhtml:defs>
  <xhtml:defs
     style="height:auto;overflow-x:visible;overflow-y:visible;width:auto;perspective-origin:50% 50%;transform-origin:50% 50%;">
    <xhtml:style
       type="text/css"
       style="display:none;height:auto;overflow-x:visible;overflow-y:visible;width:auto;perspective-origin:50% 50%;transform-origin:50% 50%;" />
  </xhtml:defs>
  <g
     id="text125"
     style="font-style:normal;font-weight:normal;font-size:40px;line-height:1.25;font-family:sans-serif;letter-spacing:0px;word-spacing:0px;fill:#000000;fill-opacity:1;stroke:none"
     aria-label="  l"
     transform="matrix(1.0585405,0,0,1,-3.6619313,0)">
    <path
       id="path842"
       style="font-style:normal;font-variant:normal;font-weight:500;font-stretch:normal;font-size:96.66666412px;font-family:Raleway;-inkscape-font-specification:'Raleway Medium';fill:#57068c;fill-opacity:1"
       d="M 62.553794,5.2779321 H 71.06046 V 62.794597 q 0,2.803333 1.45,4.446667 1.546667,1.546666 4.253334,1.546666 1.063333,0 2.513333,-0.29 1.45,-0.386666 2.706667,-0.87 l 1.353333,6.863334 q -2.126667,0.87 -5.026667,1.45 -2.9,0.58 -5.123333,0.58 -4.93,0 -7.83,-2.803334 -2.803333,-2.803333 -2.803333,-7.83 z"
       inkscape:connector-curvature="0" />
  </g>
  <g
     id="text141"
     style="font-style:normal;font-weight:normal;font-size:40px;line-height:1.25;font-family:sans-serif;letter-spacing:0px;word-spacing:0px;fill:#000000;fill-opacity:1;stroke:none"
     aria-label="t"
     transform="matrix(1.0148406,0,0,1,-1.9641386,0)">
    <path
       id="path845"
       style="font-style:normal;font-variant:normal;font-weight:500;font-stretch:normal;font-size:96.66666412px;line-height:1.25;font-family:Raleway;-inkscape-font-specification:'Raleway Medium';fill:#57068c;fill-opacity:1"
       d="m 162.89627,72.592166 q -0.77333,0.386667 -2.03,0.966667 -1.25667,0.483333 -2.9,1.063333 -1.54667,0.483333 -3.48,0.773333 -1.83667,0.386667 -3.86667,0.386667 -4.64,0 -8.02333,-2.513333 -3.38333,-2.61 -3.38333,-8.023333 v -33.93 h -6.86334 v -6.669999 h 6.86334 v -16.82 h 8.50666 v 16.82 h 11.31 V 31.3155 h -11.31 v 31.32 q 0.19334,2.803333 1.83667,4.059999 1.64333,1.256667 3.86667,1.256667 2.51333,0 4.54333,-0.773333 2.12667,-0.87 2.9,-1.353333 z"
       inkscape:connector-curvature="0" />
  </g>
  <text
     xml:space="preserve"
     style="font-style:normal;font-weight:normal;font-size:40px;line-height:1.25;font-family:sans-serif;letter-spacing:0px;word-spacing:0px;fill:#000000;fill-opacity:1;stroke:none"
     x="204.69083"
     y="86.886993"
     id="text1232"><tspan
       id="tspan1230"
       x="204.69083"
       y="122.27762" /></text>
  <g
     id="g367"
     transform="matrix(0.10290679,0,0,0.10290805,108.0849,51.133766)">
    <g
       id="g347"
       class="arc">
      <path
         id="path343"
         style="fill:#57068c;stroke:#ffffff"
         d="M -3.4068951,239.97582 A 240,240 0 0 1 -141.72416,-193.68599 l 58.585283,81.04529 a 140,140 0 0 0 80.5727308,252.61718 z" />
      <text
         id="text345"
         style="font-family:sans-serif;text-anchor:middle;white-space:nowrap;display:block"
         dy="0.34999999em"
         transform="translate(-181.01558,57.735264)" />
    </g>
    <g
       id="g353"
       class="arc">
      <path
         id="path349"
         style="fill:#fdd835;stroke:#ffffff"
         d="m -139.4724,-195.31372 a 240,240 0 0 1 333.15839,53.58956 L 112.6407,-83.138877 A 140,140 0 0 0 -80.887117,-114.26843 Z" />
      <text
         id="text351"
         style="font-family:sans-serif;text-anchor:middle;white-space:nowrap;display:block"
         dy="0.34999999em"
         transform="translate(30.174226,-187.58869)" />
    </g>
    <g
       id="g359"
       class="arc">
      <path
         id="path355"
         style="fill:#03a9f4;stroke:#ffffff"
         d="m 195.31372,-139.4724 a 240,240 0 0 1 -12.5234,294.99635 L 107.00189,90.280646 a 140,140 0 0 0 7.26654,-171.167763 z" />
      <text
         id="text357"
         style="font-family:sans-serif;text-anchor:middle;white-space:nowrap;display:block"
         dy="0.34999999em"
         transform="translate(189.82902,8.0587601)" />
    </g>
    <g
       id="g365"
       class="arc">
      <path
         id="path361"
         style="fill:#bdbdbd;stroke:#ffffff"
         d="M 180.97761,157.62965 A 240,240 0 0 1 -0.62851605,239.99918 L 0.21223283,139.99984 A 140,140 0 0 0 105.18917,92.38635 Z" />
      <text
         id="text363"
         style="font-family:sans-serif;text-anchor:middle;white-space:nowrap;display:block"
         dy="0.34999999em"
         transform="translate(78.481416,173.03372)" />
    </g>
  </g>
  <g
     aria-label="p"
     transform="matrix(1.0499812,0,0,0.98510434,-0.26967951,0)"
     style="font-style:normal;font-weight:normal;font-size:38.25241852px;line-height:1.25;font-family:sans-serif;letter-spacing:0px;word-spacing:0px;fill:#57068c;fill-opacity:1;stroke:none;stroke-width:0.95631045"
     id="text31">
    <path
       d="m 15.25699,54.699618 q 0,7.670406 4.233666,12.302535 4.233666,4.632129 11.206763,4.632129 6.823673,0 10.708684,-4.233666 3.934819,-4.233666 3.934819,-11.75465 0,-8.417524 -3.934819,-13.199076 -3.885011,-4.781552 -10.858108,-4.781552 -7.12252,0 -11.206763,4.532513 -4.084242,4.532513 -4.084242,12.501767 z M 7.7360064,99.576477 V 31.788013 h 7.4213676 v 8.566948 q 2.639815,-4.930976 6.973097,-7.570791 4.333282,-2.639815 9.66272,-2.639815 9.861951,0 15.838892,6.724057 5.97694,6.724058 5.97694,17.831206 0,11.306378 -5.877325,17.980628 -5.827517,6.624442 -15.63966,6.624442 -5.628285,0 -9.812144,-2.540199 -4.183858,-2.590008 -6.823673,-7.670407 v 30.482395 z"
       style="font-style:normal;font-variant:normal;font-weight:normal;font-stretch:normal;font-size:102.00644684px;font-family:Futura;-inkscape-font-specification:Futura;fill:#57068c;fill-opacity:1;stroke-width:0.95631045"
       id="path839"
       inkscape:connector-curvature="0" />
  </g>
  <g
     aria-label="r"
     transform="matrix(1.10169,0,0,0.96522981,-10.731025,0)"
     style="font-style:normal;font-weight:normal;font-size:42.09606552px;line-height:1.25;font-family:sans-serif;letter-spacing:0px;word-spacing:0px;fill:#000000;fill-opacity:1;stroke:none;stroke-width:1.05240166"
     id="text859">
    <path
       d="m 163.41497,76.579002 v -45.13816 h 6.85705 v 9.372952 q 3.10788,-5.870428 6.6104,-8.386325 3.50252,-2.515898 8.53432,-2.515898 1.38128,0 2.66389,0.246657 1.28261,0.197325 2.56523,0.641307 l -2.56523,6.955717 q -1.33195,-0.443982 -2.5159,-0.641307 -1.18395,-0.246657 -2.26924,-0.246657 -6.11708,0 -9.17562,4.439819 -3.05855,4.390488 -3.05855,13.270126 v 22.001769 z"
       style="font-style:normal;font-variant:normal;font-weight:normal;font-stretch:normal;font-size:101.0305481px;font-family:Futura;-inkscape-font-specification:Futura;fill:#57068c;fill-opacity:1;stroke-width:1.05240166"
       id="path843"
       inkscape:connector-curvature="0" />
  </g>
  <g
     aria-label="e"
     transform="matrix(1.0232308,0,0,1.0009376,-4.7768856,0)"
     style="font-style:normal;font-weight:normal;font-size:41.37259293px;line-height:1.25;font-family:sans-serif;letter-spacing:0px;word-spacing:0px;fill:#000000;fill-opacity:1;stroke:none;stroke-width:1.03431487"
     id="text863">
    <path
       d="m 233.00193,47.19514 q -0.38786,-5.866505 -3.92716,-9.017933 -3.49081,-3.199911 -9.59973,-3.199911 -5.52712,0 -9.21187,3.345362 -3.68475,3.296878 -4.26655,8.872482 z m 8.14523,6.157405 h -35.15054 v 0.678769 q 0,7.127075 4.07262,11.539074 4.07261,4.363516 10.61788,4.363516 4.46049,0 8.04827,-2.375692 3.58778,-2.424175 6.35134,-7.272526 l 5.76953,3.878681 q -3.34536,6.011954 -8.53309,9.066415 -5.18774,3.054461 -12.02391,3.054461 -10.13306,0 -16.38743,-6.690724 -6.25437,-6.690724 -6.25437,-17.551029 0,-10.423954 6.20589,-17.066194 6.20589,-6.64224 15.95107,-6.64224 9.84215,0 15.56321,6.302855 5.76953,6.302856 5.76953,17.211645 z"
       style="font-style:normal;font-variant:normal;font-weight:normal;font-stretch:normal;font-size:99.29421997px;font-family:Futura;-inkscape-font-specification:Futura;fill:#57068c;fill-opacity:1;stroke-width:1.03431487"
       id="path846"
       inkscape:connector-curvature="0" />
  </g>
  <g
     aria-label="e"
     transform="matrix(1.0232306,0,0,1.0009376,-5.9778006,0)"
     style="font-style:normal;font-weight:normal;font-size:41.37259293px;line-height:1.25;font-family:sans-serif;letter-spacing:0px;word-spacing:0px;fill:#000000;fill-opacity:1;stroke:none;stroke-width:1.03431487"
     id="text863-4">
    <path
       d="m 282.69554,47.195368 q -0.38787,-5.866504 -3.92717,-9.017932 -3.49081,-3.199911 -9.59973,-3.199911 -5.52712,0 -9.21187,3.345362 -3.68474,3.296878 -4.26654,8.872481 z m 8.14523,6.157406 h -35.15054 v 0.678769 q 0,7.127075 4.07261,11.539074 4.07261,4.363516 10.61789,4.363516 4.46048,0 8.04826,-2.375692 3.58778,-2.424175 6.35134,-7.272526 l 5.76954,3.87868 q -3.34537,6.011955 -8.5331,9.066416 -5.18774,3.054461 -12.02391,3.054461 -10.13305,0 -16.38743,-6.690724 -6.25437,-6.690724 -6.25437,-17.551029 0,-10.423954 6.20589,-17.066194 6.20589,-6.64224 15.95107,-6.64224 9.84216,0 15.56321,6.302855 5.76954,6.302856 5.76954,17.211645 z"
       style="font-style:normal;font-variant:normal;font-weight:normal;font-stretch:normal;font-size:99.29421997px;font-family:Futura;-inkscape-font-specification:Futura;fill:#57068c;fill-opacity:1;stroke-width:1.03431487"
       id="path849"
       inkscape:connector-curvature="0" />
  </g>
</svg>
