<?xml version="1.0" encoding="iso-8859-1"?>
<!-- Generator: Adobe Illustrator 19.0.0, SVG Export Plug-In . SVG Version: 6.00 Build 0)  -->
<svg version="1.1" id="Capa_1" xmlns="http://www.w3.org/2000/svg" xmlns:xlink="http://www.w3.org/1999/xlink" x="0px" y="0px"
	 viewBox="0 0 512.063 512.063" style="enable-background:new 0 0 512.063 512.063;" xml:space="preserve">
<g transform="translate(-1)">
	<path style="fill:#AF8066;" d="M356.511,51.247L345.035,68.02l-44.756,84.303c-5.208,10.505-11.211,22.51-18.361,36.017
		c-28.337,53.937-166.753,184.85-192.883,223.426c-26.13,38.488-5.65,69.297-21.363,92.337c-9.357,13.859-33.368,1.677-51.2-10.328
		l-0.088-0.088c-0.273-0.235-0.569-0.442-0.883-0.618c-12.006-8.21-17.567-21.186-12.8-29.837
		c25.335-44.756,106.108-184.232,159.426-232.43c46.345-41.843,60.292-99.84,64.53-128.618l56.143-76.359l9.446-13.948
		c7.213-10.521,21.569-13.243,32.132-6.091l26.924,18.273c3.056,2.073,5.447,4.985,6.885,8.386
		C360.916,38.581,360.281,45.691,356.511,51.247z"/>
	<path style="fill:#95A5A5;" d="M502.431,110.304l-52.436-11.476l-80.684-17.655c-4.894-1.134-9.534-3.17-13.683-6.003
		l-95.779-64.971c-2.995-2.044-6.68-2.81-10.241-2.131c-3.561,0.679-6.706,2.748-8.738,5.751l-36.988,54.554
		c-2.061,3.005-2.838,6.707-2.158,10.287c0.679,3.58,2.759,6.74,5.778,8.781l11.829,8.033c3.413,2.295,6.375,5.197,8.739,8.563
		l12.977,18.273c11.027,15.529,28,25.789,46.874,28.337l15.978,2.119c36.017,7.945,31.956,38.223,39.283,76.27
		c1.723,8.497,5.113,16.568,9.975,23.746c8.945,12.665,20.391,23.36,33.633,31.426c4.663,2.973,10.459,3.562,15.625,1.589
		c13.859-5.297,42.902-21.098,73.358-66.03c19.561-28.406,32.308-60.94,37.252-95.073
		C513.532,117.938,509.031,111.825,502.431,110.304z"/>
	<path style="fill:#BDC3C7;" d="M513.024,124.693c-4.944,34.133-17.692,66.667-37.252,95.073
		c-30.455,44.932-59.498,60.734-73.357,66.03c-5.166,1.973-10.962,1.384-15.625-1.589c-13.242-8.066-24.689-18.762-33.633-31.426
		l3.001-0.088c73.092-64.706,91.101-124.91,93.837-153.865l52.436,11.476C509.031,111.825,513.532,117.938,513.024,124.693z"/>
</g>
<g>
</g>
<g>
</g>
<g>
</g>
<g>
</g>
<g>
</g>
<g>
</g>
<g>
</g>
<g>
</g>
<g>
</g>
<g>
</g>
<g>
</g>
<g>
</g>
<g>
</g>
<g>
</g>
<g>
</g>
</svg>
