<?xml version="1.0" encoding="UTF-8"?>
<svg xmlns="http://www.w3.org/2000/svg" xmlns:xlink="http://www.w3.org/1999/xlink" width="512" height="512" viewBox="0 0 58 59" version="1.1"><!-- Generator: Sketch 50.2 (55047) - http://www.bohemiancoding.com/sketch --><title>076 - Crane </title><desc>Created with Sketch.</desc><defs/><g id="Page-1" stroke="none" stroke-width="1" fill="none" fill-rule="evenodd"><g id="076---Crane-" fill-rule="nonzero"><path d="M10,24 C9.44771525,24 9,24.4477153 9,25 L9,36 C9,36.5522847 9.44771525,37 10,37 C10.5522847,37 11,36.5522847 11,36 L11,25 C11,24.4477153 10.5522847,24 10,24 Z" id="Shape" fill="#5E5F62"/><path d="M54,30 C54,30.5522847 54.4477153,31 55,31 C55.5522847,31 56,30.5522847 56,30 L56,4 C55.9938499,3.93791129 55.9814538,3.87660108 55.963,3.817 C55.9580152,3.754082 55.9469638,3.69179269 55.93,3.631 L55.924,3.622 C55.8827043,3.53223456 55.8284598,3.44901474 55.763,3.375 C55.743,3.351 55.732,3.318 55.71,3.296 C55.6412894,3.23434947 55.5646026,3.1822159 55.482,3.141 C55.4536901,3.11984816 55.4243185,3.10015585 55.394,3.082 C55.3507286,3.069273 55.3066213,3.05958277 55.262,3.053 C55.1806657,3.02443729 55.0959492,3.00661993 55.01,3 L55,3 C54.8776248,3.02651416 54.7545835,3.04985532 54.631,3.07 L12.361,19.84 C12.028743,19.9720096 11.7921512,20.2712486 11.7403464,20.6249964 C11.6885416,20.9787442 11.8293942,21.3332582 12.1098464,21.5549964 C12.3902986,21.7767346 12.767743,21.8320096 13.1,21.7 L54,5.473 L54,30 Z" id="Shape" fill="#5E5F62"/><path d="M56,36.184 L56,34 C56,33.4477153 55.5522847,33 55,33 C54.4477153,33 54,33.4477153 54,34 L54,37 C54,37.5522847 54.4477153,38 55,38 C55.4851707,38.000473 55.9000069,38.3491365 55.9839455,38.8269912 C56.0678841,39.304846 55.7967056,39.7740129 55.3407402,39.9398031 C54.8847749,40.1055933 54.3755857,39.9201702 54.133,39.5 C53.8486124,39.0403179 53.250411,38.88983 52.7823603,39.1602232 C52.3143096,39.4306164 52.1458472,40.0240067 52.402,40.5 C53.061207,41.6577518 54.4049704,42.2420637 55.7012849,41.9346362 C56.9975994,41.6272086 57.9358704,40.5017007 58.0049816,39.1712246 C58.0740928,37.8407485 57.2574853,36.6240839 56,36.184 Z" id="Shape" fill="#5E5F62"/><path d="M57.7,0.958 L57.047,0.3 C56.8496124,0.101535476 56.5785886,-0.0059160133 56.2988322,0.00337758918 C56.0190758,0.0126711917 55.7557808,0.137872934 55.572,0.349 L28,30 L28,32 L37,32 L37,30 L37.091,30 L57.817,2.257 C58.0973352,1.85269923 58.0480674,1.305701 57.7,0.958 Z" id="Shape" fill="#F29C1F"/><rect id="Rectangle-path" fill="#E57E25" x="18" y="42" width="12" height="11"/><rect id="Rectangle-path" fill="#F29C1F" x="2" y="35" width="30" height="10"/><path d="M7,35 L7,45 L1,45 C0.44771525,45 0,44.5522847 0,44 L0,36 C-1.11022302e-16,35.4477153 0.44771525,35 1,35 L7,35 Z" id="Shape" fill="#F0C419"/><path d="M39,31 L39,44 C39,44.5522847 38.5522847,45 38,45 L27,45 L27,31 C27,30.4477153 27.4477153,30 28,30 L38,30 C38.5522847,30 39,30.4477153 39,31 Z" id="Shape" fill="#F0C419"/><path d="M39,34 L32,34 C31.4477153,34 31,34.4477153 31,35 L31,39.219 C31.0000121,39.6776794 31.3120689,40.0775409 31.757,40.189 L39,42 L39,34 Z" id="Shape" fill="#2FA8CC"/><path d="M12,38 L11,38 C10.4477153,38 10,38.4477153 10,39 C10,39.5522847 10.4477153,40 11,40 L12,40 C12.5522847,40 13,39.5522847 13,39 C13,38.4477153 12.5522847,38 12,38 Z" id="Shape" fill="#F0C419"/><path d="M22,38 L16,38 C15.4477153,38 15,38.4477153 15,39 C15,39.5522847 15.4477153,40 16,40 L22,40 C22.5522847,40 23,39.5522847 23,39 C23,38.4477153 22.5522847,38 22,38 Z" id="Shape" fill="#F0C419"/><rect id="Rectangle-path" fill="#BDC3C7" x="4" y="50" width="40" height="8" rx="3"/><path d="M10,53 L8,53 C7.44771525,53 7,53.4477153 7,54 C7,54.5522847 7.44771525,55 8,55 L10,55 C10.5522847,55 11,54.5522847 11,54 C11,53.4477153 10.5522847,53 10,53 Z" id="Shape" fill="#ECF0F1"/><path d="M16,53 L14,53 C13.4477153,53 13,53.4477153 13,54 C13,54.5522847 13.4477153,55 14,55 L16,55 C16.5522847,55 17,54.5522847 17,54 C17,53.4477153 16.5522847,53 16,53 Z" id="Shape" fill="#ECF0F1"/><path d="M22,53 L20,53 C19.4477153,53 19,53.4477153 19,54 C19,54.5522847 19.4477153,55 20,55 L22,55 C22.5522847,55 23,54.5522847 23,54 C23,53.4477153 22.5522847,53 22,53 Z" id="Shape" fill="#ECF0F1"/><path d="M28,53 L26,53 C25.4477153,53 25,53.4477153 25,54 C25,54.5522847 25.4477153,55 26,55 L28,55 C28.5522847,55 29,54.5522847 29,54 C29,53.4477153 28.5522847,53 28,53 Z" id="Shape" fill="#ECF0F1"/><path d="M34,53 L32,53 C31.4477153,53 31,53.4477153 31,54 C31,54.5522847 31.4477153,55 32,55 L34,55 C34.5522847,55 35,54.5522847 35,54 C35,53.4477153 34.5522847,53 34,53 Z" id="Shape" fill="#ECF0F1"/><path d="M40,53 L38,53 C37.4477153,53 37,53.4477153 37,54 C37,54.5522847 37.4477153,55 38,55 L40,55 C40.5522847,55 41,54.5522847 41,54 C41,53.4477153 40.5522847,53 40,53 Z" id="Shape" fill="#ECF0F1"/><path d="M41,59 L7,59 C4.790861,59 3,57.209139 3,55 L3,53 C3,50.790861 4.790861,49 7,49 L41,49 C43.209139,49 45,50.790861 45,53 L45,55 C45,57.209139 43.209139,59 41,59 Z M7,51 C5.8954305,51 5,51.8954305 5,53 L5,55 C5,56.1045695 5.8954305,57 7,57 L41,57 C42.1045695,57 43,56.1045695 43,55 L43,53 C43,51.8954305 42.1045695,51 41,51 L7,51 Z" id="Shape" fill="#7F8C8D"/><path d="M58,33 C58,33.5522847 57.5522847,34 57,34 L53,34 C52.4477153,34 52,33.5522847 52,33 L52,30 C52,29.4477153 52.4477153,29 53,29 L57,29 C57.5522847,29 58,29.4477153 58,30 L58,33 Z" id="Shape" fill="#F29C1F"/><circle id="Oval" fill="#F0C419" cx="10" cy="22" r="3"/></g></g></svg>
