<?xml version="1.0" encoding="iso-8859-1"?>
<!-- Generator: Adobe Illustrator 19.0.0, SVG Export Plug-In . SVG Version: 6.00 Build 0)  -->
<svg version="1.1" id="Layer_1" xmlns="http://www.w3.org/2000/svg" xmlns:xlink="http://www.w3.org/1999/xlink" x="0px" y="0px"
	 viewBox="0 0 512 512" style="enable-background:new 0 0 512 512;" xml:space="preserve">
<path style="fill:#0099DF;" d="M212.071,219.43c-1.933-4.159-6.874-5.96-11.03-4.031c-0.554,0.257-1.063,0.571-1.529,0.927
	l-16.499-21.668c-14.395-3.739-28.104-6.439-40.896-8.379c-0.598-1.413-0.91-2.239-0.932-2.298
	c-1.586-4.297-6.353-6.504-10.656-4.918c-4.305,1.582-6.512,6.354-4.929,10.659c0.783,2.13,19.654,52.364,60.958,69.404
	c3.029,1.251,6.18,1.872,9.274,1.872c3.703,0,7.328-0.89,10.573-2.657c5.569-3.032,9.166-7.938,10.399-14.189
	C218.157,237.284,216.61,229.196,212.071,219.43z"/>
<path style="fill:#65B9E9;" d="M511.886,454.07c-0.462-2.751-11.342-65.281-48.955-91.179c0.987-19.292-2.498-86.165-78.917-198.614
	c-1.578-8.246-8.02-50.999,23.582-69.122c4.917-2.82,7.744-8.096,7.375-13.766c-0.373-5.753-3.916-10.692-9.247-12.891
	c-12.361-5.098-47.453-7.84-93.925,16.684c-8.201-5.795-27.11-17.706-54.733-26.482c-34.019-10.809-88.343-18.694-153.916,5.102
	c-2.202,0.792-52.786,19.482-66.452,67.943c-3.542,1.77-9.245,4.748-15.005,8.289C6.691,149.26,0,156.861,0,164.681
	c0,5.723,2.282,10.919,6.598,15.022c9.108,8.662,26.817,12.204,54.16,10.826c50.283-2.534,99.617,4.209,146.615,20.04
	c80.558,27.133,149.064,79.205,203.76,154.847c-11.479,6.239-30.974,19.588-46.72,44.26c-1.755,2.75-1.728,6.273,0.055,9.006
	c1.784,2.733,5.009,4.162,8.236,3.666c0.634-0.097,63.878-9.23,125.853,39.618c1.499,1.18,3.316,1.782,5.142,1.782
	c1.457,0,2.92-0.383,4.231-1.159C510.881,460.84,512.453,457.454,511.886,454.07z"/>
<path style="fill:#0099DF;" d="M462.931,362.891c0.987-19.292-2.498-86.165-78.917-198.614c-1.578-8.246-8.02-50.999,23.582-69.122
	c4.917-2.82,7.744-8.096,7.375-13.766c-0.373-5.753-3.916-10.692-9.247-12.891c-9.185-3.787-30.925-6.265-60.553,2.767
	c7.218,0.999,15.855,1.914,26.085,2.709c0.403,0.031,0.819,0.076,1.219,0.14c3.276,0.515,5.948,1.24,7.938,2.061
	c5.044,2.079,5.638,9.062,0.906,11.776c-40.667,23.323-27.242,79.637-27.242,79.637c90.021,131.883,77.969,199.603,77.969,199.603
	c25.728,14.779,39.199,49.359,45.291,70.579c0.891,3.211,2.168,7.329,3.708,11.872c5.812,3.631,11.666,7.72,17.509,12.325
	c1.499,1.18,3.316,1.782,5.142,1.782c1.457,0,2.92-0.383,4.231-1.159c2.953-1.748,4.525-5.134,3.958-8.518
	C511.424,451.317,500.544,388.789,462.931,362.891z"/>
<path style="fill:#D9D9DB;" d="M238.543,155.957c-67.962-21.455-133.584,9.327-164.638,34.124c0.182,0.003,0.37,0.011,0.551,0.014
	c45.541-0.771,90.195,6.083,132.917,20.474c80.558,27.133,149.064,79.205,203.76,154.847
	C411.131,365.415,362.901,195.215,238.543,155.957z"/>
<path style="fill:#65B9E9;" d="M263.855,222.625c-9.624-14.338-24.169-36.004-21.514-67.497c0.373-4.435-2.812-8.338-7.176-8.918
	l0.166-1.241l-72.179-8.783c-0.742-0.298-1.41-0.396-1.969-0.239c-4.415,1.246-0.428,17.85,0.816,22.263
	c0.296,1.047,7.407,25.933,22.259,50.176c18.729,30.573,41.583,46.493,66.503,46.493c2.649,0,5.32-0.179,8.013-0.54
	c2.454-0.33,9.922-1.331,12.888-7.919C274.942,239.141,270.292,232.214,263.855,222.625z"/>
<path style="fill:#0099DF;" d="M13.175,173.069c-2.99,0-4.849-0.074-5.235-0.091c-4.582-0.203-8.133-4.081-7.931-8.662
	c0.202-4.583,4.085-8.125,8.662-7.931c0.77,0.032,51.282,1.89,80.607-18.26c3.78-2.599,8.95-1.639,11.547,2.143
	c2.598,3.78,1.639,8.95-2.141,11.547C70.383,171.26,27.963,173.069,13.175,173.069z"/>
<path d="M116.746,122.784c-5.267,0-9.552-4.277-9.552-9.536c0-5.258,4.285-9.537,9.552-9.537s9.552,4.278,9.552,9.537
	C126.298,118.506,122.013,122.784,116.746,122.784z"/>
<g>
</g>
<g>
</g>
<g>
</g>
<g>
</g>
<g>
</g>
<g>
</g>
<g>
</g>
<g>
</g>
<g>
</g>
<g>
</g>
<g>
</g>
<g>
</g>
<g>
</g>
<g>
</g>
<g>
</g>
</svg>
