<?xml version="1.0" encoding="iso-8859-1"?>
<!-- Generator: Adobe Illustrator 19.0.0, SVG Export Plug-In . SVG Version: 6.00 Build 0)  -->
<svg version="1.1" id="Capa_1" xmlns="http://www.w3.org/2000/svg" xmlns:xlink="http://www.w3.org/1999/xlink" x="0px" y="0px"
	 viewBox="0 0 469.333 469.333" style="enable-background:new 0 0 469.333 469.333;" xml:space="preserve">
<g transform="matrix(1.25 0 0 -1.25 0 45)">
	<g>
		<g>
			<g>
				<path style="fill:#292F33;" d="M309.554-339.467c-4.927,143.565-33.906,269.528-134.19,269.528
					c-100.295,0-129.274-125.963-134.201-269.528H309.554z"/>
				<path style="fill:#292F33;" d="M101.056-339.467c-8.044,67.118-25.543,113.778-45.909,113.778s-37.865-46.66-45.898-113.778
					H101.056z"/>
				<path style="fill:#292F33;" d="M361.948-339.467c-9.034,67.118-28.695,113.778-51.587,113.778s-42.564-46.66-51.598-113.778
					H361.948z"/>
			</g>
			<path style="fill:#E1E8ED;" d="M310.35-199.372C265.715-72.464,316.437,36,191.282,36S91.886-56.991,41.175-181.6
				c-12.732-31.278,16.418-67.22,16.418-67.22s29.719,54.113,54.044,66.514c6.724-37.285,19.911-78.928,19.911-78.928
				s55.922,64.353,103.367,93.867C248-184.888,290.837-252.7,290.837-252.7S319.361-224.995,310.35-199.372"/>
			<path style="fill:#FFCC4D;" d="M259.548,13.244c49.607-34.805,63.056-24.576,88.883-40.539
				c24.189-14.928,22.767-56.172,1.422-91.728c-6.588,30.276,5.7,35.829-78.928,35.829c-56.889,0-90.203-3.288-79.656,11.378
				C201.829-57.138,305.355-77.027,259.548,13.244"/>
			<path style="fill:#292F33;" d="M236.099-15.393c0-9.33-7.555-16.873-16.885-16.873c-9.341,0-16.873,7.543-16.873,16.873
				S209.873,1.48,219.214,1.48C228.544,1.48,236.099-6.064,236.099-15.393"/>
			<g>
				<path style="fill:#E1E8ED;" d="M248.171-10.308h-56.889v22.756h56.889V-10.308z"/>
				<path style="fill:#E1E8ED;" d="M168.515-157.422c0,0,11.378-34.133,68.278-79.644c11.378,34.133,45.511,91.022,45.511,91.022
					L168.515-157.422z"/>
			</g>
		</g>
	</g>
</g>
<g>
</g>
<g>
</g>
<g>
</g>
<g>
</g>
<g>
</g>
<g>
</g>
<g>
</g>
<g>
</g>
<g>
</g>
<g>
</g>
<g>
</g>
<g>
</g>
<g>
</g>
<g>
</g>
<g>
</g>
</svg>
