<?xml version="1.0" encoding="iso-8859-1"?>
<!-- Generator: Adobe Illustrator 19.0.0, SVG Export Plug-In . SVG Version: 6.00 Build 0)  -->
<svg version="1.1" id="Layer_1" xmlns="http://www.w3.org/2000/svg" xmlns:xlink="http://www.w3.org/1999/xlink" x="0px" y="0px"
	 viewBox="0 0 462.411 462.411" style="enable-background:new 0 0 462.411 462.411;" xml:space="preserve">
<g>
	<path style="fill:#008DB3;" d="M178.127,217.31l-4.857,1.497L28.46,212.31l-1-10.333l14.41-5.32l129.04,0.15
		C182.46,196.807,176.677,210.64,178.127,217.31z"/>
	<path style="fill:#008DB3;" d="M264.411,202.304c-3.037,0-5.5-2.462-5.5-5.5v-49c0-3.038,2.463-5.5,5.5-5.5s5.5,2.462,5.5,5.5v49
		C269.911,199.842,267.448,202.304,264.411,202.304z"/>
	
		<rect x="296.953" y="297.371" transform="matrix(-0.1275 -0.9918 0.9918 -0.1275 58.1195 655.8689)" style="fill:#008DB3;" width="41.164" height="10"/>
	
		<rect x="223.965" y="297.374" transform="matrix(-0.1275 -0.9918 0.9918 -0.1275 -24.1773 583.4799)" style="fill:#008DB3;" width="41.164" height="10"/>
	<path style="fill:#008DB3;" d="M361.106,327.804H226.911v-10h134.195c9.771,0,18.836-4.406,24.873-12.089l3.09-3.931l7.862,6.178
		l-3.089,3.932C385.897,322.005,373.966,327.804,361.106,327.804z"/>
	<polygon style="fill:#F4581B;" points="22,141.607 41.87,196.657 41.86,196.657 6,196.617 6,196.607 0,134.607 	"/>
	<polygon style="fill:#008DB3;" points="5.93,196.607 5.93,196.597 6,196.607 6,196.617 41.86,196.657 41.87,196.657 34.27,211.017 
		18.68,240.447 1.14,246.027 	"/>
	<path style="fill:#F4581B;" d="M380.91,270.807l1.82,0.24c-1.47,12.81-12.35,22.76-25.56,22.76h-89.26
		c-26.79,0-51.03-10.86-68.59-28.41c-12.89-12.9-22.17-29.4-26.19-47.87l-2.22-20.72h140.74l-4.07,25.67
		c-4.03,25.37,15.58,48.33,41.27,48.33H380.91z"/>
	<path style="fill:#76CDCE;" d="M382.91,268.067c0,1.01-0.06,2-0.18,2.98l-1.82-0.24h-32.06c-25.69,0-45.3-22.96-41.27-48.33
		l2.43-15.31l1.64-10.36c19.67,0,37.49,7.97,50.39,20.87C374.93,230.577,382.91,248.387,382.91,268.067z"/>
	<path style="fill:#DB481B;" d="M278.911,231.304h-58.25c-4.142,0-7.5-3.358-7.5-7.5s3.358-7.5,7.5-7.5h58.25
		c4.143,0,7.5,3.358,7.5,7.5S283.054,231.304,278.911,231.304z"/>
	<path style="fill:#DB481B;" d="M200.56,231.307c-0.49,0-0.98-0.05-1.47-0.15c-0.47-0.1-0.95-0.24-1.4-0.43
		c-0.45-0.18-0.89-0.42-1.29-0.69c-0.41-0.27-0.8-0.58-1.14-0.93c-1.4-1.4-2.2-3.33-2.2-5.3c0-0.49,0.05-0.98,0.15-1.47
		c0.09-0.48,0.24-0.95,0.43-1.4c0.18-0.45,0.42-0.89,0.69-1.3s0.58-0.79,0.93-1.14c0.34-0.34,0.73-0.66,1.14-0.93
		c0.4-0.27,0.84-0.5,1.29-0.69s0.93-0.33,1.4-0.43c2.44-0.49,5.03,0.31,6.77,2.05c0.35,0.35,0.66,0.73,0.94,1.14
		c0.27,0.41,0.5,0.85,0.68,1.3c0.19,0.45,0.34,0.92,0.43,1.4c0.1,0.49,0.15,0.98,0.15,1.47c0,1.97-0.8,3.9-2.2,5.3
		C204.47,230.507,202.54,231.307,200.56,231.307z"/>
	<path style="fill:#666666;" d="M454.911,167.304h-381c-4.142,0-7.5-3.358-7.5-7.5s3.358-7.5,7.5-7.5h381c4.143,0,7.5,3.358,7.5,7.5
		S459.054,167.304,454.911,167.304z"/>
	<path style="fill:#96E0DE;" d="M382.91,268.067c0,1.01-0.06,2-0.18,2.98l-1.82-0.24h-7.26l-63.64-63.64l1.64-10.36
		c19.67,0,37.49,7.97,50.39,20.87C374.93,230.577,382.91,248.387,382.91,268.067z"/>
</g>
<g>
</g>
<g>
</g>
<g>
</g>
<g>
</g>
<g>
</g>
<g>
</g>
<g>
</g>
<g>
</g>
<g>
</g>
<g>
</g>
<g>
</g>
<g>
</g>
<g>
</g>
<g>
</g>
<g>
</g>
</svg>
