<?xml version="1.0" encoding="iso-8859-1"?>
<!-- Generator: Adobe Illustrator 19.0.0, SVG Export Plug-In . SVG Version: 6.00 Build 0)  -->
<svg version="1.1" id="Capa_1" xmlns="http://www.w3.org/2000/svg" xmlns:xlink="http://www.w3.org/1999/xlink" x="0px" y="0px"
	 viewBox="0 0 512.209 512.209" style="enable-background:new 0 0 512.209 512.209;" xml:space="preserve">
<path style="fill:#00BCD4;" d="M298.491,8.355c-1.061-5.242-5.949-8.806-11.264-8.213l-256,21.333
	c-5.211,0.422-9.349,4.559-9.771,9.771l-21.333,256c-0.436,5.265,3.049,10.056,8.192,11.264l362.667,85.333
	c0.811,0.195,1.641,0.295,2.475,0.299c5.891-0.007,10.661-4.788,10.654-10.679c-0.001-0.822-0.097-1.641-0.286-2.441L298.491,8.355z
	"/>
<g>
	<path style="fill:#0097A7;" d="M501.456,512.142c-65.493,0-96-23.723-96-74.667c0-32-37.077-54.613-37.461-54.848
		c-0.774-0.453-1.49-0.997-2.133-1.621L24.528,39.672c-4.093-4.237-3.975-10.99,0.262-15.083c4.134-3.992,10.687-3.992,14.821,0
		l340.501,340.459c7.659,4.864,46.677,31.659,46.677,72.427c0,32,12.693,53.333,74.667,53.333c5.891,0,10.667,4.776,10.667,10.667
		S507.347,512.142,501.456,512.142z"/>
	<path style="fill:#0097A7;" d="M10.79,298.809c-5.891,0.011-10.675-4.757-10.686-10.648c-0.005-2.84,1.123-5.565,3.134-7.571
		L280.571,3.256c4.093-4.237,10.845-4.355,15.083-0.262c4.237,4.093,4.355,10.845,0.262,15.083
		c-0.086,0.089-0.173,0.176-0.262,0.262L18.32,295.672C16.325,297.674,13.616,298.802,10.79,298.809z"/>
	<path style="fill:#0097A7;" d="M394.79,512.142c-14.738,0.824-28.867-5.974-37.419-18.005
		c-25.323-36.267,2.795-115.456,6.08-124.352c1.307-3.544,4.39-6.132,8.107-6.805c21.873-1.931,43.643,4.691,60.736,18.475
		c20.149,14.714,44.231,23.078,69.163,24.021c5.891,0,10.667,4.776,10.667,10.667c0,5.891-4.776,10.667-10.667,10.667
		c-28.841-0.942-56.761-10.383-80.256-27.136c-11.602-8.907-25.391-14.523-39.915-16.256c-8.32,25.067-21.163,77.355-6.4,98.539
		c4.553,6.324,12.158,9.707,19.904,8.853c5.891,0,10.667,4.776,10.667,10.667S400.681,512.142,394.79,512.142z"/>
</g>
<g>
</g>
<g>
</g>
<g>
</g>
<g>
</g>
<g>
</g>
<g>
</g>
<g>
</g>
<g>
</g>
<g>
</g>
<g>
</g>
<g>
</g>
<g>
</g>
<g>
</g>
<g>
</g>
<g>
</g>
</svg>
