<?xml version="1.0" encoding="iso-8859-1"?>
<!-- Generator: Adobe Illustrator 19.0.0, SVG Export Plug-In . SVG Version: 6.00 Build 0)  -->
<svg version="1.1" id="Capa_1" xmlns="http://www.w3.org/2000/svg" xmlns:xlink="http://www.w3.org/1999/xlink" x="0px" y="0px"
	 viewBox="0 0 512 512" style="enable-background:new 0 0 512 512;" xml:space="preserve">
<path style="fill:#EDF0F5;" d="M279.657,118.478h-47.313c-3.99,0-7.816-1.585-10.637-4.406c-2.821-2.821-4.407-6.647-4.407-10.638
	c0-4.371-0.3-10.008-0.618-15.977c-1.405-26.423-3.155-59.308,13.295-76.656C236.679,3.735,245.677,0,256,0
	c10.324,0,19.323,3.735,26.023,10.802c16.45,17.349,14.7,50.233,13.295,76.656c-0.317,5.968-0.617,11.606-0.617,15.976
	C294.701,111.742,287.965,118.478,279.657,118.478z M246.862,88.39h18.277c0.044-0.836,0.088-1.68,0.134-2.53
	c0.862-16.213,2.467-46.392-5.083-54.356c-0.536-0.564-1.344-1.416-4.191-1.416c-2.846,0-3.655,0.852-4.189,1.416
	c-7.55,7.962-5.945,38.142-5.082,54.356C246.773,86.709,246.818,87.554,246.862,88.39z"/>
<path style="fill:#D8DCEB;" d="M282.026,10.807C275.326,3.736,266.32,0.005,256,0.005v30.088c2.848,0,3.651,0.842,4.192,1.414
	c5.366,5.667,6.108,22.556,5.787,37.68c-0.14,6.138-0.451,11.985-0.702,16.669c-0.05,0.852-0.09,1.695-0.14,2.537H256v30.088h23.659
	c8.304,0,15.044-6.74,15.044-15.044c0-4.373,0.301-10.009,0.612-15.977c0.291-5.586,0.612-11.463,0.762-17.421
	C296.65,47.825,294.995,24.486,282.026,10.807z"/>
<path style="fill:#FFDE55;" d="M297.509,382.834h-83.018c-7.334,0-15.009-3.488-23.464-10.662
	c-23.416-19.872-35.288-52.709-30.98-85.695l14.425-110.496c0.979-7.492,7.361-13.096,14.918-13.096H322.61
	c7.555,0,13.939,5.604,14.918,13.096l14.425,110.496c4.307,32.986-7.564,65.823-30.98,85.695
	C312.518,379.347,304.844,382.834,297.509,382.834z M219.974,352.746H291.9c3.482,0,6.866-1.201,9.526-3.448
	c16.6-14.028,23.534-37.168,20.692-58.927l-12.714-97.398H202.598l-12.716,97.399c-2.999,22.97,4.9,45.524,20.615,58.86l0.086,0.073
	C213.207,351.526,216.535,352.746,219.974,352.746z"/>
<path style="fill:#FFD422;" d="M351.95,286.482l-8.715-66.745l-2.257-17.311l-3.45-26.447c-0.983-7.492-7.361-13.098-14.914-13.098
	H256v30.088h53.406l1.234,9.458l2.257,17.311l9.217,70.636c3.11,23.741-5.431,46.03-20.689,58.929
	c-2.655,2.245-6.035,3.443-9.511,3.443h-35.912v30.088h41.511c7.331,0,15.004-3.49,23.459-10.661
	c3.039-2.578,5.877-5.366,8.515-8.354C347.196,343.789,355.701,315.195,351.95,286.482z"/>
<path style="fill:#FFD400;" d="M301.599,286.572c0-26.303-22.387-47.477-49.108-45.466c-22.637,1.703-40.764,20.224-42.018,42.891
	c-1.094,19.791,10.517,37.059,27.402,44.403c1.852,0.805,3.078,2.6,3.078,4.62v34.041c0,8.101,6.226,15.071,14.318,15.451
	c8.639,0.406,15.769-6.478,15.769-15.027v-34.462c0-2.023,1.23-3.818,3.085-4.624C290.275,321.376,301.599,305.275,301.599,286.572z
	 M256.001,302.082c-8.553,0-15.51-6.958-15.51-15.51c0-8.552,6.958-15.51,15.51-15.51c8.552,0,15.51,6.958,15.51,15.51
	C271.511,295.125,264.553,302.082,256.001,302.082z"/>
<path style="fill:#FFD422;" d="M256.001,240.979v30.088c8.555,0,15.515,6.95,15.515,15.505c0,8.555-6.96,15.515-15.515,15.515
	v80.445c8.304,0,15.044-6.74,15.044-15.044v-34.466c0-2.024,1.23-3.818,3.085-4.625c16.148-7.021,27.474-23.118,27.474-41.826
	C301.603,261.428,281.144,240.979,256.001,240.979z"/>
<path style="fill:#D8DCEB;" d="M397.032,457.872c-8.308,0-15.044-6.736-15.044-15.044V204.694c0-8.308,6.736-15.044,15.044-15.044
	c8.308,0,15.044,6.736,15.044,15.044v238.134C412.076,451.136,405.34,457.872,397.032,457.872z"/>
<path style="fill:#EDF0F5;" d="M114.969,457.872c-8.308,0-15.044-6.736-15.044-15.044V204.694c0-8.308,6.736-15.044,15.044-15.044
	s15.044,6.736,15.044,15.044v238.134C130.013,451.136,123.277,457.872,114.969,457.872z"/>
<path style="fill:#FF4C04;" d="M289.344,352.746h-66.689c-43.258,0-78.451,35.193-78.451,78.451v65.754
	c0,8.308,6.736,15.044,15.044,15.044H352.75c8.308,0,15.044-6.736,15.044-15.044v-65.754
	C367.795,387.94,332.603,352.746,289.344,352.746z"/>
<path style="fill:#D03B00;" d="M367.796,431.194v65.762c0,8.304-6.74,15.044-15.044,15.044H256V352.745h33.347
	c14.663,0,28.393,4.042,40.137,11.072c22.014,13.158,37.068,36.797,38.232,63.967C367.776,428.917,367.796,430.051,367.796,431.194z
	"/>
<path style="fill:#FF4C04;" d="M283.699,69.185h-55.396c-49.627,0-90.002,40.375-90.002,90.002v28.189
	c0,8.308,6.736,15.044,15.044,15.044h205.313c8.308,0,15.044-6.736,15.044-15.044v-28.189
	C373.701,109.56,333.326,69.185,283.699,69.185z"/>
<path style="fill:#D03B00;" d="M373.704,159.19v28.192c0,8.304-6.74,15.044-15.044,15.044H256V69.187h27.701
	c4.202,0,8.334,0.291,12.376,0.852c35.694,4.924,64.759,30.86,74.297,64.879C372.55,142.642,373.704,150.785,373.704,159.19z"/>
<g>
	<path style="fill:#FF7037;" d="M412.254,427.784H99.747c-12.243,0-22.202,9.96-22.202,22.202v39.807
		c0,12.243,9.96,22.202,22.202,22.202h312.508c12.242,0,22.202-9.96,22.202-22.202v-39.807
		C434.456,437.743,424.496,427.784,412.254,427.784z"/>
	<path style="fill:#FF7037;" d="M433.407,184.654l-38.334-44.507c-2.858-3.319-7.02-5.226-11.398-5.226H128.403
		c-4.374,0-8.532,1.904-11.389,5.215l-38.409,44.508c-5.857,5.171-8.208,13.268-5.863,20.909
		c2.605,8.484,10.317,14.184,19.192,14.184h328.132c8.872,0,16.583-5.698,19.19-14.177
		C441.603,197.923,439.257,189.828,433.407,184.654z"/>
</g>
<g>
	<path style="fill:#FF4C04;" d="M439.255,205.555c-2.608,8.485-10.32,14.181-19.186,14.181H256v-84.818h127.673
		c4.383,0,8.545,1.906,11.403,5.225l38.332,44.51C439.255,189.829,441.603,197.923,439.255,205.555z"/>
	<path style="fill:#FF4C04;" d="M434.451,449.989v39.806c0,12.236-9.959,22.205-22.195,22.205H256v-84.216h156.256
		C424.493,427.784,434.451,437.743,434.451,449.989z"/>
</g>
<g>
</g>
<g>
</g>
<g>
</g>
<g>
</g>
<g>
</g>
<g>
</g>
<g>
</g>
<g>
</g>
<g>
</g>
<g>
</g>
<g>
</g>
<g>
</g>
<g>
</g>
<g>
</g>
<g>
</g>
</svg>
