<?xml version="1.0" encoding="iso-8859-1"?>
<!-- Generator: Adobe Illustrator 16.0.0, SVG Export Plug-In . SVG Version: 6.00 Build 0)  -->
<!DOCTYPE svg PUBLIC "-//W3C//DTD SVG 1.1//EN" "http://www.w3.org/Graphics/SVG/1.1/DTD/svg11.dtd">
<svg xmlns="http://www.w3.org/2000/svg" xmlns:xlink="http://www.w3.org/1999/xlink" version="1.1" id="Capa_1" x="0px" y="0px" width="512px" height="512px" viewBox="0 0 121.834 121.834" style="enable-background:new 0 0 121.834 121.834;" xml:space="preserve">
<g>
	<g>
		<path d="M101.111,46.447H85.848c-0.801-15.608-10.379-28.132-22.457-29.513C63.021,7.337,61.167,0,61.167,0    s-1.855,7.338-2.223,16.935c-12.08,1.381-21.657,13.905-22.458,29.513H21.223v5.927h79.888V46.447z" fill="#933EC5"/>
		<rect x="23.949" y="54.152" width="6.164" height="24.892" fill="#933EC5"/>
		<rect x="40.542" y="54.152" width="6.164" height="24.892" fill="#933EC5"/>
		<rect x="74.68" y="54.152" width="6.163" height="24.892" fill="#933EC5"/>
		<rect x="91.273" y="54.152" width="6.164" height="24.892" fill="#933EC5"/>
		<rect x="58.085" y="54.152" width="6.164" height="24.892" fill="#933EC5"/>
		<rect x="8.244" y="89.061" width="6.164" height="24.892" fill="#933EC5"/>
		<rect x="24.838" y="89.061" width="6.164" height="24.892" fill="#933EC5"/>
		<rect x="58.975" y="89.061" width="6.164" height="24.892" fill="#933EC5"/>
		<polygon points="101.111,81.178 21.223,81.178 6.719,81.178 6.719,87.105 115.115,87.105 115.115,81.178   " fill="#933EC5"/>
		<rect x="6.719" y="115.908" width="108.396" height="5.926" fill="#933EC5"/>
		<rect x="75.568" y="89.061" width="6.164" height="24.892" fill="#933EC5"/>
		<rect x="90.639" y="89.061" width="6.164" height="24.892" fill="#933EC5"/>
		<rect x="107.232" y="89.061" width="6.164" height="24.892" fill="#933EC5"/>
		<rect x="42.38" y="89.061" width="6.164" height="24.892" fill="#933EC5"/>
	</g>
</g>
<g>
</g>
<g>
</g>
<g>
</g>
<g>
</g>
<g>
</g>
<g>
</g>
<g>
</g>
<g>
</g>
<g>
</g>
<g>
</g>
<g>
</g>
<g>
</g>
<g>
</g>
<g>
</g>
<g>
</g>
</svg>
