<?xml version="1.0" encoding="iso-8859-1"?>
<!-- Generator: Adobe Illustrator 19.0.0, SVG Export Plug-In . SVG Version: 6.00 Build 0)  -->
<svg version="1.1" id="Capa_1" xmlns="http://www.w3.org/2000/svg" xmlns:xlink="http://www.w3.org/1999/xlink" x="0px" y="0px"
	 viewBox="0 0 512 512" style="enable-background:new 0 0 512 512;" xml:space="preserve">
<polygon style="fill:#66BB00;" points="440.114,320.675 376,294.789 316.797,383.993 347.897,457 509.274,457 "/>
<path style="fill:#D2C5C2;" d="M406,354.789l34.114-34.114l-29.691-59.387c-6.563-13.125-19.761-21.27-34.424-21.27
	s-27.861,8.145-34.424,21.27l-41.602,83.218l16.822,39.487L376,324.789L406,354.789z"/>
<polygon style="fill:#A5E887;" points="389.2,458.8 1.8,458.8 95.799,288.401 138.401,262.599 250.901,266.8 284.5,266.8 "/>
<polygon style="fill:#70DA40;" points="389.2,458.8 256,458.8 256,266.8 284.5,266.8 "/>
<rect y="451" style="fill:#738C96;" width="512" height="30"/>
<rect x="241" y="31" style="fill:#9EE0FF;" width="90" height="30"/>
<rect x="451" y="211" style="fill:#73BCFF;" width="60" height="30"/>
<rect x="30" y="181" style="fill:#9EE0FF;" width="61" height="30"/>
<path style="fill:#EDE9E8;" d="M473.2,91.601C462.7,73.001,442.899,61,421,61s-41.7,12.001-52.2,30.601
	C347.199,95.2,331,113.8,331,136c0,24.901,20.099,45,45,45h90c24.901,0,45-20.099,45-45C511,113.8,494.801,95.2,473.2,91.601z"/>
<path style="fill:#DFD7D5;" d="M511,136c0,24.901-20.099,45-45,45h-45V61c21.899,0,41.7,12.001,52.2,30.601
	C494.801,95.2,511,113.8,511,136z"/>
<path style="fill:#EDE9E8;" d="M143.2,61.601C132.7,43.001,112.899,31,91,31S49.3,43.001,38.8,61.601C17.199,65.2,0,83.8,0,106
	c0,24.901,21.099,45,46,45h90c24.901,0,45-20.099,45-45C181,83.8,164.801,65.2,143.2,61.601z"/>
<path style="fill:#DFD7D5;" d="M181,106c0,24.901-20.099,45-45,45H91V31c21.899,0,41.7,12.001,52.2,30.601
	C164.801,65.2,181,83.8,181,106z"/>
<rect x="256" y="31" style="fill:#73BCFF;" width="75" height="30"/>
<rect x="256" y="451" style="fill:#495959;" width="256" height="30"/>
<path style="fill:#EDE9E8;" d="M284.5,266.8l-28.5,51l-5.099,9L196,299.2l-2.999-1.5l-54.6,54.899L95.8,288.4l63.301-116.1
	c7.5-13.5,21.599-21.901,36.899-21.901s29.399,8.401,36.899,21.901L256,214.6L284.5,266.8z"/>
<polygon style="fill:#DFD7D5;" points="284.5,266.8 256,317.8 256,214.6 "/>
<g>
</g>
<g>
</g>
<g>
</g>
<g>
</g>
<g>
</g>
<g>
</g>
<g>
</g>
<g>
</g>
<g>
</g>
<g>
</g>
<g>
</g>
<g>
</g>
<g>
</g>
<g>
</g>
<g>
</g>
</svg>
