<?xml version="1.0" encoding="iso-8859-1"?>
<!-- Generator: Adobe Illustrator 19.0.0, SVG Export Plug-In . SVG Version: 6.00 Build 0)  -->
<svg version="1.1" id="Capa_1" xmlns="http://www.w3.org/2000/svg" xmlns:xlink="http://www.w3.org/1999/xlink" x="0px" y="0px"
	 viewBox="0 0 512.002 512.002" style="enable-background:new 0 0 512.002 512.002;" xml:space="preserve">
<path style="fill:#72D8FF;" d="M236.495,283.127H63.505L10,347.381v133.591c0,11.54,9.355,20.896,20.896,20.896h238.209
	c11.54,0,20.896-9.355,20.896-20.896V347.381L236.495,283.127z"/>
<path style="fill:#5A54E0;" d="M236.495,283.127H63.505v-47.196c0-7.767,6.297-14.064,14.064-14.064h144.862
	c7.767,0,14.064,6.297,14.064,14.064V283.127z"/>
<path style="fill:#ADE5FF;" d="M385.109,409.788L385.109,409.788c79.139-45.638,124.407-133.225,115.864-224.18L484.478,10.002
	L387.687,157.45C337.553,233.821,336.546,332.409,385.109,409.788L385.109,409.788z"/>
<path style="fill:#4DBAF6;" d="M500.973,185.608l-1.155-12.301l-4.528-1.894l-59.89,36.045l-36.045-59.89l-4.714-0.712
	l-6.954,10.594c-13.12,19.986-22.868,41.495-29.251,63.746l0.663,0.87l51.43,85.452l85.452-51.43l0.979-0.387
	C501.749,233.031,503.211,209.436,500.973,185.608z"/>
<path d="M246.495,279.508v-43.576c0-13.27-10.795-24.064-24.064-24.064H77.569c-13.269,0-24.064,10.795-24.064,24.064v43.576
	l-51.19,61.473C0.819,342.778,0,345.043,0,347.381v133.591c0,17.036,13.86,30.896,30.896,30.896h238.209
	c17.036,0,30.896-13.859,30.896-30.896V347.381c0-2.338-0.819-4.603-2.315-6.399L246.495,279.508z M73.505,235.931
	c0-2.241,1.823-4.064,4.064-4.064h144.862c2.241,0,4.064,1.823,4.064,4.064v37.195H73.505V235.931z M280,480.971
	c0,6.008-4.888,10.896-10.896,10.896H30.896c-6.008,0-10.896-4.888-10.896-10.896V360.698h115.674c5.523,0,10-4.478,10-10
	s-4.477-10-10-10H28.578l39.613-47.571h163.618L280,350.999V480.971z"/>
<path d="M362.19,492.002c-2.63,0-5.21,1.069-7.07,2.93c-1.86,1.86-2.93,4.44-2.93,7.07s1.07,5.21,2.93,7.069
	c1.86,1.86,4.44,2.931,7.07,2.931s5.21-1.07,7.07-2.931c1.86-1.859,2.93-4.439,2.93-7.069s-1.07-5.21-2.93-7.07
	S364.82,492.002,362.19,492.002z"/>
<path d="M510.929,184.673L494.434,9.066c-0.397-4.229-3.422-7.745-7.544-8.77c-4.124-1.025-8.441,0.666-10.772,4.218
	l-96.792,147.448c-25.651,39.076-39.462,84.437-39.939,131.177c-0.46,45,11.469,88.971,34.531,127.515l-11.619,46.419
	c-1.341,5.357,1.915,10.787,7.272,12.129c0.815,0.203,1.632,0.301,2.436,0.301c4.479,0,8.556-3.031,9.693-7.573l11.312-45.19
	c39.151-23.301,70.848-56.932,91.793-97.456C506.267,277.759,515.3,231.212,510.929,184.673z M488.862,163.609l-38.25,23.021
	l29.385-117.392L488.862,163.609z M431.329,181.302l-22.642-37.621l51.819-78.939L431.329,181.302z M443.733,214.114l47.205-28.411
	l0.079,0.84c1.994,21.232,0.889,42.309-3.013,62.675l-62.469,37.597L443.733,214.114z M396.046,162.937l0.463-0.705l27.963,46.462
	l-18.139,72.463l-36.969-61.425C375.451,199.907,384.343,180.766,396.046,162.937z M362.741,247.511l36.736,61.038l-18.34,73.266
	C361.091,339.679,354.983,292.623,362.741,247.511z M400.196,388.044l18.459-73.744l62.195-37.432
	C466.392,320.947,438.413,360.12,400.196,388.044z"/>
<path d="M182.84,340.702c-2.63,0-5.21,1.06-7.07,2.93c-1.86,1.86-2.93,4.43-2.93,7.07c0,2.63,1.07,5.199,2.93,7.069
	c1.86,1.86,4.44,2.931,7.07,2.931s5.21-1.07,7.07-2.931c1.86-1.859,2.93-4.439,2.93-7.069c0-2.641-1.07-5.221-2.93-7.07
	C188.05,341.761,185.47,340.702,182.84,340.702z"/>
<g>
</g>
<g>
</g>
<g>
</g>
<g>
</g>
<g>
</g>
<g>
</g>
<g>
</g>
<g>
</g>
<g>
</g>
<g>
</g>
<g>
</g>
<g>
</g>
<g>
</g>
<g>
</g>
<g>
</g>
</svg>
